<mxfile host="app.diagrams.net" modified="2023-10-05T19:13:48.403Z" agent="Mozilla/5.0 (Windows NT 10.0; Win64; x64) AppleWebKit/537.36 (KHTML, like Gecko) Chrome/117.0.0.0 Safari/537.36" etag="IQqe1rlNF4MMMHnT8xVe" version="22.0.3" type="github">
  <diagram id="C5RBs43oDa-KdzZeNtuy" name="Page-1">
    <mxGraphModel dx="792" dy="726" grid="1" gridSize="10" guides="1" tooltips="1" connect="1" arrows="1" fold="1" page="1" pageScale="1" pageWidth="827" pageHeight="1169" math="0" shadow="0">
      <root>
        <mxCell id="WIyWlLk6GJQsqaUBKTNV-0" />
        <mxCell id="WIyWlLk6GJQsqaUBKTNV-1" parent="WIyWlLk6GJQsqaUBKTNV-0" />
        <mxCell id="uvkjri6FY9MWjZu6di9B-12" value="" style="edgeStyle=orthogonalEdgeStyle;rounded=0;orthogonalLoop=1;jettySize=auto;html=1;" edge="1" parent="WIyWlLk6GJQsqaUBKTNV-1" source="uvkjri6FY9MWjZu6di9B-1" target="uvkjri6FY9MWjZu6di9B-11">
          <mxGeometry relative="1" as="geometry" />
        </mxCell>
        <mxCell id="uvkjri6FY9MWjZu6di9B-1" value="" style="strokeWidth=2;html=1;shape=mxgraph.flowchart.start_2;whiteSpace=wrap;" vertex="1" parent="WIyWlLk6GJQsqaUBKTNV-1">
          <mxGeometry x="120" y="20" width="30" height="30" as="geometry" />
        </mxCell>
        <mxCell id="uvkjri6FY9MWjZu6di9B-2" value="" style="strokeWidth=2;html=1;shape=mxgraph.flowchart.terminator;whiteSpace=wrap;" vertex="1" parent="WIyWlLk6GJQsqaUBKTNV-1">
          <mxGeometry x="267.5" y="670" width="65" height="40" as="geometry" />
        </mxCell>
        <mxCell id="uvkjri6FY9MWjZu6di9B-17" value="" style="edgeStyle=orthogonalEdgeStyle;rounded=0;orthogonalLoop=1;jettySize=auto;html=1;" edge="1" parent="WIyWlLk6GJQsqaUBKTNV-1" source="uvkjri6FY9MWjZu6di9B-9">
          <mxGeometry relative="1" as="geometry">
            <mxPoint x="460" y="120" as="targetPoint" />
          </mxGeometry>
        </mxCell>
        <mxCell id="uvkjri6FY9MWjZu6di9B-9" value="enquanto notas&amp;gt;0" style="shape=hexagon;perimeter=hexagonPerimeter2;whiteSpace=wrap;html=1;fixedSize=1;" vertex="1" parent="WIyWlLk6GJQsqaUBKTNV-1">
          <mxGeometry x="270" y="80" width="120" height="80" as="geometry" />
        </mxCell>
        <mxCell id="uvkjri6FY9MWjZu6di9B-32" value="" style="edgeStyle=orthogonalEdgeStyle;rounded=0;orthogonalLoop=1;jettySize=auto;html=1;" edge="1" parent="WIyWlLk6GJQsqaUBKTNV-1" source="uvkjri6FY9MWjZu6di9B-10" target="uvkjri6FY9MWjZu6di9B-31">
          <mxGeometry relative="1" as="geometry" />
        </mxCell>
        <mxCell id="uvkjri6FY9MWjZu6di9B-10" value="" style="strokeWidth=2;html=1;shape=mxgraph.flowchart.start_2;whiteSpace=wrap;" vertex="1" parent="WIyWlLk6GJQsqaUBKTNV-1">
          <mxGeometry x="285" y="510" width="30" height="30" as="geometry" />
        </mxCell>
        <mxCell id="uvkjri6FY9MWjZu6di9B-13" value="" style="edgeStyle=orthogonalEdgeStyle;rounded=0;orthogonalLoop=1;jettySize=auto;html=1;" edge="1" parent="WIyWlLk6GJQsqaUBKTNV-1" source="uvkjri6FY9MWjZu6di9B-11" target="uvkjri6FY9MWjZu6di9B-9">
          <mxGeometry relative="1" as="geometry" />
        </mxCell>
        <mxCell id="uvkjri6FY9MWjZu6di9B-11" value="inteiro maior = 0&lt;br&gt;inteiro menor = 100&lt;br&gt;inteiro nota = 0&lt;br&gt;inteiro notas = 6" style="rounded=1;whiteSpace=wrap;html=1;" vertex="1" parent="WIyWlLk6GJQsqaUBKTNV-1">
          <mxGeometry x="75" y="80" width="120" height="80" as="geometry" />
        </mxCell>
        <mxCell id="uvkjri6FY9MWjZu6di9B-26" value="" style="edgeStyle=orthogonalEdgeStyle;rounded=0;orthogonalLoop=1;jettySize=auto;html=1;" edge="1" parent="WIyWlLk6GJQsqaUBKTNV-1" source="uvkjri6FY9MWjZu6di9B-15" target="uvkjri6FY9MWjZu6di9B-24">
          <mxGeometry relative="1" as="geometry" />
        </mxCell>
        <mxCell id="uvkjri6FY9MWjZu6di9B-15" value="maior = nota" style="rounded=1;whiteSpace=wrap;html=1;" vertex="1" parent="WIyWlLk6GJQsqaUBKTNV-1">
          <mxGeometry x="380" y="340" width="120" height="60" as="geometry" />
        </mxCell>
        <mxCell id="uvkjri6FY9MWjZu6di9B-20" value="" style="edgeStyle=orthogonalEdgeStyle;rounded=0;orthogonalLoop=1;jettySize=auto;html=1;" edge="1" parent="WIyWlLk6GJQsqaUBKTNV-1" source="uvkjri6FY9MWjZu6di9B-18" target="uvkjri6FY9MWjZu6di9B-19">
          <mxGeometry relative="1" as="geometry">
            <Array as="points">
              <mxPoint x="510" y="190" />
              <mxPoint x="300" y="190" />
            </Array>
          </mxGeometry>
        </mxCell>
        <mxCell id="uvkjri6FY9MWjZu6di9B-18" value="leia nota" style="html=1;strokeWidth=2;shape=manualInput;whiteSpace=wrap;rounded=1;size=26;arcSize=11;" vertex="1" parent="WIyWlLk6GJQsqaUBKTNV-1">
          <mxGeometry x="460" y="80" width="100" height="80" as="geometry" />
        </mxCell>
        <mxCell id="uvkjri6FY9MWjZu6di9B-23" value="sim" style="edgeStyle=orthogonalEdgeStyle;rounded=0;orthogonalLoop=1;jettySize=auto;html=1;" edge="1" parent="WIyWlLk6GJQsqaUBKTNV-1" source="uvkjri6FY9MWjZu6di9B-19" target="uvkjri6FY9MWjZu6di9B-15">
          <mxGeometry relative="1" as="geometry" />
        </mxCell>
        <mxCell id="uvkjri6FY9MWjZu6di9B-25" value="nÃ£o" style="edgeStyle=orthogonalEdgeStyle;rounded=0;orthogonalLoop=1;jettySize=auto;html=1;" edge="1" parent="WIyWlLk6GJQsqaUBKTNV-1" source="uvkjri6FY9MWjZu6di9B-19" target="uvkjri6FY9MWjZu6di9B-24">
          <mxGeometry relative="1" as="geometry" />
        </mxCell>
        <mxCell id="uvkjri6FY9MWjZu6di9B-19" value="nota&amp;gt;maior" style="rhombus;whiteSpace=wrap;html=1;strokeWidth=2;rounded=1;arcSize=11;" vertex="1" parent="WIyWlLk6GJQsqaUBKTNV-1">
          <mxGeometry x="260" y="200" width="80" height="80" as="geometry" />
        </mxCell>
        <mxCell id="uvkjri6FY9MWjZu6di9B-28" value="sim" style="edgeStyle=orthogonalEdgeStyle;rounded=0;orthogonalLoop=1;jettySize=auto;html=1;" edge="1" parent="WIyWlLk6GJQsqaUBKTNV-1" source="uvkjri6FY9MWjZu6di9B-24" target="uvkjri6FY9MWjZu6di9B-27">
          <mxGeometry relative="1" as="geometry" />
        </mxCell>
        <mxCell id="uvkjri6FY9MWjZu6di9B-24" value="nota&amp;lt;menor" style="rhombus;whiteSpace=wrap;html=1;strokeWidth=2;rounded=1;arcSize=11;" vertex="1" parent="WIyWlLk6GJQsqaUBKTNV-1">
          <mxGeometry x="260" y="330" width="80" height="80" as="geometry" />
        </mxCell>
        <mxCell id="uvkjri6FY9MWjZu6di9B-30" style="edgeStyle=orthogonalEdgeStyle;rounded=0;orthogonalLoop=1;jettySize=auto;html=1;entryX=0;entryY=0.5;entryDx=0;entryDy=0;entryPerimeter=0;" edge="1" parent="WIyWlLk6GJQsqaUBKTNV-1" source="uvkjri6FY9MWjZu6di9B-27" target="uvkjri6FY9MWjZu6di9B-10">
          <mxGeometry relative="1" as="geometry">
            <mxPoint x="140" y="520" as="targetPoint" />
            <Array as="points">
              <mxPoint x="140" y="525" />
            </Array>
          </mxGeometry>
        </mxCell>
        <mxCell id="uvkjri6FY9MWjZu6di9B-27" value="menor = nota" style="whiteSpace=wrap;html=1;strokeWidth=2;rounded=1;arcSize=11;" vertex="1" parent="WIyWlLk6GJQsqaUBKTNV-1">
          <mxGeometry x="80" y="340" width="120" height="60" as="geometry" />
        </mxCell>
        <mxCell id="uvkjri6FY9MWjZu6di9B-29" style="edgeStyle=orthogonalEdgeStyle;rounded=0;orthogonalLoop=1;jettySize=auto;html=1;exitX=0.5;exitY=1;exitDx=0;exitDy=0;entryX=0.5;entryY=0;entryDx=0;entryDy=0;entryPerimeter=0;" edge="1" parent="WIyWlLk6GJQsqaUBKTNV-1" source="uvkjri6FY9MWjZu6di9B-24" target="uvkjri6FY9MWjZu6di9B-10">
          <mxGeometry relative="1" as="geometry" />
        </mxCell>
        <mxCell id="uvkjri6FY9MWjZu6di9B-33" value="" style="edgeStyle=orthogonalEdgeStyle;rounded=0;orthogonalLoop=1;jettySize=auto;html=1;" edge="1" parent="WIyWlLk6GJQsqaUBKTNV-1" source="uvkjri6FY9MWjZu6di9B-31" target="uvkjri6FY9MWjZu6di9B-2">
          <mxGeometry relative="1" as="geometry" />
        </mxCell>
        <mxCell id="uvkjri6FY9MWjZu6di9B-31" value="escreva maior&lt;br&gt;escreva menor" style="shape=document;whiteSpace=wrap;html=1;boundedLbl=1;" vertex="1" parent="WIyWlLk6GJQsqaUBKTNV-1">
          <mxGeometry x="240" y="570" width="120" height="80" as="geometry" />
        </mxCell>
      </root>
    </mxGraphModel>
  </diagram>
</mxfile>
